<?xml version="1.0" encoding="UTF-8"?>
<svg xmlns="http://www.w3.org/2000/svg" xmlns:xlink="http://www.w3.org/1999/xlink" width="512pt" height="512pt" viewBox="0 0 512 512" version="1.1">
<g id="surface21">
<path style=" stroke:none;fill-rule:nonzero;fill:rgb(0%,100%,100%);fill-opacity:1;" d="M 478.210938 334.09375 L 336 256 L 478.210938 177.90625 C 490.003906 171.429688 494.171875 156.523438 487.441406 144.871094 L 467.960938 111.128906 C 461.234375 99.476562 446.242188 95.628906 434.734375 102.605469 L 296 186.71875 L 299.476562 24.515625 C 299.761719 11.0625 288.9375 0 275.480469 0 L 236.519531 0 C 223.0625 0 212.238281 11.0625 212.527344 24.515625 L 216 186.71875 L 77.265625 102.605469 C 65.757812 95.632812 50.765625 99.476562 44.039062 111.128906 L 24.558594 144.871094 C 17.828125 156.523438 21.996094 171.429688 33.789062 177.90625 L 176 256 L 33.789062 334.09375 C 21.996094 340.570312 17.828125 355.476562 24.558594 367.128906 L 44.039062 400.871094 C 50.765625 412.523438 65.757812 416.371094 77.265625 409.394531 L 216 325.28125 L 212.523438 487.484375 C 212.238281 500.9375 223.0625 512 236.519531 512 L 275.480469 512 C 288.9375 512 299.765625 500.9375 299.476562 487.484375 L 296 325.28125 L 434.734375 409.394531 C 446.242188 416.367188 461.234375 412.523438 467.960938 400.871094 L 487.441406 367.128906 C 494.171875 355.476562 490.003906 340.570312 478.210938 334.09375 Z M 478.210938 334.09375 "/>
</g>
</svg>
